HIERARCHY
ROOT Hips
{
	OFFSET 0.000000 0.000000 0.000000
	CHANNELS 6 Xposition Yposition Zposition Xrotation Yrotation Zrotation
	JOINT LeftUpLeg_virtual
	{
		OFFSET 0.000000 0.000000 0.000000
		CHANNELS 3 Xrotation Yrotation Zrotation
		JOINT LeftUpLeg
		{
			OFFSET 10.205400 -3.823500 0.155100
			CHANNELS 3 Xrotation Yrotation Zrotation
			JOINT LeftLeg
			{
				OFFSET 0.708757 -12.982077 0.567790
				CHANNELS 3 Xrotation Yrotation Zrotation
				JOINT LeftFoot
				{
					OFFSET -0.708756 -10.717838 -2.184338
					CHANNELS 3 Xrotation Yrotation Zrotation
					JOINT LeftToeBase
					{
						OFFSET 0.108149 -7.191104 7.560241
						CHANNELS 3 Xrotation Yrotation Zrotation
						JOINT LeftToe_End
						{
							OFFSET 0.070230 0.081724 4.490308
							CHANNELS 3 Xrotation Yrotation Zrotation
							End Site
							{
								OFFSET 0 0 0
							}
						}
					}
				}
			}
		}
	}
	JOINT RightUpLeg_virtual
	{
		OFFSET 0.000000 0.000000 0.000000
		CHANNELS 3 Xrotation Yrotation Zrotation
		JOINT RightUpLeg
		{
			OFFSET -10.205400 -3.823500 0.005500
			CHANNELS 3 Xrotation Yrotation Zrotation
			JOINT RightLeg
			{
				OFFSET -0.708756 -12.982134 0.610632
				CHANNELS 3 Xrotation Yrotation Zrotation
				JOINT RightFoot
				{
					OFFSET 0.708754 -10.717769 -1.945823
					CHANNELS 3 Xrotation Yrotation Zrotation
					JOINT RightToeBase
					{
						OFFSET -0.108140 -7.191069 7.372968
						CHANNELS 3 Xrotation Yrotation Zrotation
						JOINT RightToe_End
						{
							OFFSET -0.070227 0.081735 4.479403
							CHANNELS 3 Xrotation Yrotation Zrotation
							End Site
							{
								OFFSET 0 0 0
							}
						}
					}
				}
			}
		}
	}
	JOINT Spine_virtual
	{
		OFFSET 0.000000 0.000000 0.000000
		CHANNELS 3 Xrotation Yrotation Zrotation
		JOINT Spine
		{
			OFFSET 0.000000 6.876099 0.125700
			CHANNELS 3 Xrotation Yrotation Zrotation
			JOINT Spine1
			{
				OFFSET 0.000000 5.730043 0.104720
				CHANNELS 3 Xrotation Yrotation Zrotation
				JOINT Spine1_split
				{
					OFFSET 0.000000 5.730043 0.104720
					CHANNELS 3 Xrotation Yrotation Zrotation
					JOINT Spine2
					{
						OFFSET 0.000000 5.730043 0.104720
						CHANNELS 3 Xrotation Yrotation Zrotation
						JOINT Neck_virtual
						{
							OFFSET 0.000000 0.000000 0.000000
							CHANNELS 3 Xrotation Yrotation Zrotation
							JOINT Neck
							{
								OFFSET 0.000000 10.314075 0.188496
								CHANNELS 3 Xrotation Yrotation Zrotation
								JOINT Head
								{
									OFFSET 0.000000 7.643700 -2.377400
									CHANNELS 3 Xrotation Yrotation Zrotation
									JOINT HeadTop_End
									{
										OFFSET 0.000000 43.788605 -13.619600
										CHANNELS 3 Xrotation Yrotation Zrotation
										End Site
										{
											OFFSET 0 0 0
										}
									}
								}
							}
						}
						JOINT LeftShoulder_virtual
						{
							OFFSET 0.000000 0.000000 0.000000
							CHANNELS 3 Xrotation Yrotation Zrotation
							JOINT LeftShoulder
							{
								OFFSET 2.196100 4.412489 0.087492
								CHANNELS 3 Xrotation Yrotation Zrotation
								JOINT LeftShoulder_split
								{
									OFFSET 2.196100 4.412489 0.087492
									CHANNELS 3 Xrotation Yrotation Zrotation
									JOINT LeftArm
									{
										OFFSET 8.771219 -2.981674 -0.026999
										CHANNELS 3 Xrotation Yrotation Zrotation
										JOINT LeftForeArm
										{
											OFFSET 8.512804 0.000000 -0.000000
											CHANNELS 3 Xrotation Yrotation Zrotation
											JOINT LeftHand
											{
												OFFSET 18.484802 0.000000 -0.000000
												CHANNELS 3 Xrotation Yrotation Zrotation
												End Site
												{
													OFFSET 0 0 0
												}
											}
										}
									}
								}
							}
						}
						JOINT RightShoulder_virtual
						{
							OFFSET 0.000000 0.000000 0.000000
							CHANNELS 3 Xrotation Yrotation Zrotation
							JOINT RightShoulder
							{
								OFFSET -2.196100 4.412496 0.070690
								CHANNELS 3 Xrotation Yrotation Zrotation
								JOINT RightShoulder_split
								{
									OFFSET -2.196100 4.412496 0.070690
									CHANNELS 3 Xrotation Yrotation Zrotation
									JOINT RightArm
									{
										OFFSET -8.771282 -2.981682 -0.094208
										CHANNELS 3 Xrotation Yrotation Zrotation
										JOINT RightForeArm
										{
											OFFSET -8.494598 0.000000 0.000000
											CHANNELS 3 Xrotation Yrotation Zrotation
											JOINT RightHand
											{
												OFFSET -18.483803 0.000000 0.000001
												CHANNELS 3 Xrotation Yrotation Zrotation
												End Site
												{
													OFFSET 0 0 0
												}
											}
										}
									}
								}
							}
						}
					}
				}
			}
		}
	}
}
MOTION
Frames: 11
Frame Time: 0.03333333
0.235603 40.393547 0.348274 0.000000 0.000000 0.000000 -85.616093 -4.117773 2.027048 5.343005 18.611075 8.095810 -3.374452 3.912357 8.340141 31.759318 27.091600 -30.165209 -9.303361 0.225724 3.702013 0.000000 0.000000 0.000000 -87.294223 -1.303544 3.565059 6.854337 -21.359144 -15.339830 -4.947229 -0.482828 -6.944068 34.112249 -31.813341 39.330244 -9.391756 0.542184 -2.973660 0.000000 0.000000 0.000000 -85.465583 -5.499404 -0.320128 5.049723 -2.061515 0.758896 4.744533 -0.951273 -1.484067 0.375073 0.829969 -0.436969 0.000000 0.000000 0.000000 5.720189 -1.426149 -1.348979 -8.498107 -1.497810 2.517924 -9.489796 -3.761196 4.754741 0.000000 0.000000 0.000000 6.588138 -1.551561 -0.894905 -0.286972 3.750621 -7.583615 -4.015073 1.391922 -4.275817 39.883100 -32.192983 -34.552578 -27.451927 -88.627128 -26.884953 0.000000 0.000000 0.000000 5.773044 -1.575952 -1.448438 0.426435 -3.396978 19.453909 1.175448 2.421794 0.262607 -41.126652 49.810268 58.790812 179.901500 76.568292 178.422436 0.000000 0.000000 0.000000 
0.207027 40.379692 0.162874 0.000000 0.000000 0.000000 -86.440272 -3.963148 2.206297 6.602073 18.785030 8.217208 -3.323887 4.395538 8.277171 31.077497 27.646611 -30.292271 -9.271392 0.241657 3.856081 0.000000 0.000000 0.000000 -88.345929 -1.015816 3.944930 7.422685 -22.212224 -15.386203 -4.939493 -0.378347 -6.866918 33.834309 -31.513653 39.174297 -9.306319 0.646091 -2.897451 0.000000 0.000000 0.000000 -86.492099 -5.216577 -0.074521 5.015894 -2.159355 0.798678 4.457886 -1.021197 -1.607881 0.552836 0.854345 -0.467519 0.000000 0.000000 0.000000 5.602564 -1.482659 -1.497747 -9.192418 -1.388649 2.668894 -11.435925 -3.297276 5.573767 0.000000 0.000000 0.000000 6.443688 -1.602473 -1.051184 -0.228607 3.259938 -6.847017 -4.170877 1.085128 -4.161308 39.017398 -32.138735 -35.837139 -28.113829 -88.760931 -27.462860 0.000000 0.000000 0.000000 5.560600 -1.607910 -1.555425 0.412220 -3.151657 18.148339 0.858289 2.720271 -0.018338 -44.920071 48.047522 61.412608 -178.296884 77.786183 176.600046 0.000000 0.000000 0.000000 
0.197908 40.353821 0.077641 0.000000 0.000000 0.000000 -86.953868 -3.838839 2.249392 7.366191 18.718145 8.633374 -3.050161 4.770310 8.217803 30.597260 28.251744 -30.426874 -9.272806 0.240530 4.034931 0.000000 0.000000 0.000000 -89.019269 -0.870956 4.067345 7.657099 -22.852580 -15.353514 -5.039118 -0.330939 -6.692761 34.133088 -31.082313 39.041085 -9.678872 0.749853 -2.850741 0.000000 0.000000 0.000000 -87.163855 -4.986122 0.029159 4.938655 -2.142451 0.933756 4.351745 -1.029971 -1.645403 0.730613 0.827285 -0.450244 0.000000 0.000000 0.000000 5.535107 -1.468091 -1.583782 -9.369815 -1.224907 2.474933 -11.677547 -2.745252 6.036402 0.000000 0.000000 0.000000 6.409033 -1.603238 -1.160778 -0.189775 2.720155 -6.394116 -4.187471 0.862543 -3.880095 38.455253 -32.221919 -36.529368 -28.313707 -89.084860 -27.660893 0.000000 0.000000 0.000000 5.498243 -1.547358 -1.573124 0.420877 -2.851435 17.110507 0.396582 2.851103 -0.242442 -46.450248 47.139637 61.951831 -176.515584 78.899292 174.852365 0.000000 0.000000 0.000000 
0.201390 40.328590 0.075468 0.000000 0.000000 0.000000 -87.116276 -3.743211 2.172803 7.574174 18.405587 9.233121 -2.652962 4.968003 8.183372 30.408183 28.763115 -30.605859 -9.213531 0.228965 4.176585 0.000000 0.000000 0.000000 -89.274910 -0.898792 3.906062 7.643245 -23.119441 -15.260514 -5.152567 -0.310726 -6.498048 35.017222 -30.551382 39.097567 -10.577559 0.823840 -2.855005 0.000000 0.000000 0.000000 -87.457950 -4.863388 -0.032436 4.843615 -2.007498 1.136685 4.366735 -0.997906 -1.602344 0.972170 0.774201 -0.396279 0.000000 0.000000 0.000000 5.479447 -1.388680 -1.607245 -8.963476 -1.059651 1.988597 -10.090494 -2.153007 6.125169 0.000000 0.000000 0.000000 6.455950 -1.572512 -1.210538 -0.166442 2.241964 -6.230629 -3.969409 0.711461 -3.400085 38.331138 -32.500892 -36.594402 -29.123302 -89.511815 -28.530241 0.000000 0.000000 0.000000 5.577910 -1.430093 -1.514178 0.464478 -2.600525 16.479303 -0.090990 2.854243 -0.367661 -45.045487 47.424073 60.177184 -175.429160 79.576396 173.891043 0.000000 0.000000 0.000000 
0.205966 40.301926 0.151525 0.000000 0.000000 0.000000 -87.004999 -3.751503 1.963355 7.272895 17.857140 9.849494 -2.290400 4.968152 8.229562 30.521038 29.142044 -30.782351 -9.021930 0.225155 4.205246 0.000000 0.000000 0.000000 -89.062853 -1.025745 3.554455 7.491270 -22.929509 -15.061636 -5.293481 -0.298246 -6.386251 36.165531 -30.159482 39.187275 -11.556940 0.847782 -2.903158 0.000000 0.000000 0.000000 -87.392612 -4.869345 -0.253436 4.745831 -1.790361 1.345224 4.447796 -0.957083 -1.507349 1.187582 0.619427 -0.271688 0.000000 0.000000 0.000000 5.410946 -1.282671 -1.568236 -7.946323 -0.927962 1.336735 -6.653961 -1.633678 5.809579 0.000000 0.000000 0.000000 6.575558 -1.542693 -1.203655 -0.147454 1.929505 -6.283030 -3.668756 0.701899 -2.856848 38.589230 -32.908972 -36.196642 -50.830097 -89.873330 -50.325329 0.000000 0.000000 0.000000 5.746474 -1.311339 -1.402169 0.536855 -2.520429 16.319164 -0.354611 2.898776 -0.459072 -40.200062 48.608359 55.994021 -175.666223 79.322238 174.364430 0.000000 0.000000 0.000000 
0.208970 40.282921 0.238333 0.000000 0.000000 0.000000 -86.599244 -3.862055 1.646690 6.562490 17.163149 10.331759 -2.129043 4.839780 8.364814 30.746271 29.431948 -30.826642 -8.652744 0.235811 4.085788 0.000000 0.000000 0.000000 -88.492457 -1.229616 3.069986 7.260301 -22.323801 -14.749327 -5.454761 -0.329060 -6.384114 37.225433 -30.091662 39.122531 -12.175683 0.828980 -2.945239 0.000000 0.000000 0.000000 -87.009937 -5.003902 -0.612484 4.673593 -1.540557 1.506102 4.554433 -0.942116 -1.365939 1.267401 0.383399 -0.201671 0.000000 0.000000 0.000000 5.302976 -1.175095 -1.476469 -6.357036 -0.869153 0.624916 -1.609985 -1.350762 5.128474 0.000000 0.000000 0.000000 6.730300 -1.533123 -1.126322 -0.132507 1.898367 -6.452711 -3.274204 0.738848 -2.366071 39.124252 -33.445203 -35.518565 -130.146454 -89.931475 -129.759374 0.000000 0.000000 0.000000 5.953148 -1.222119 -1.255702 0.635220 -2.728392 16.605990 -0.366358 2.984872 -0.500071 -31.973994 49.805026 49.575012 -177.146967 77.777953 176.157996 0.000000 0.000000 0.000000 
0.197923 40.268368 0.342794 0.000000 0.000000 0.000000 -86.003823 -4.061603 1.263674 5.583945 16.497991 10.622791 -2.259071 4.651917 8.586313 30.966565 29.601989 -30.654644 -8.258959 0.255551 3.843699 0.000000 0.000000 0.000000 -87.659017 -1.449171 2.576147 6.948734 -21.419962 -14.389124 -5.624119 -0.372406 -6.498217 38.132844 -30.303487 38.864220 -12.422082 0.795007 -2.953361 0.000000 0.000000 0.000000 -86.409734 -5.206479 -1.043155 4.658831 -1.307869 1.577546 4.658420 -0.970103 -1.189421 1.261531 0.331491 -0.151085 0.000000 0.000000 0.000000 5.148677 -1.104511 -1.333225 -4.313276 -0.930867 -0.038705 4.632950 -1.373587 4.178492 0.000000 0.000000 0.000000 6.865938 -1.560118 -0.981205 -0.122368 2.179769 -6.631342 -2.981754 0.740358 -2.039636 39.781050 -34.086708 -34.730952 -34.263770 -89.748986 -34.011087 0.000000 0.000000 0.000000 6.123769 -1.188005 -1.081784 0.749097 -3.283949 17.295325 -0.225204 3.154817 -0.570317 -21.645993 49.906239 42.106235 -178.793097 74.908488 178.153709 0.000000 0.000000 0.000000 
0.182652 40.255859 0.433258 0.000000 0.000000 0.000000 -85.294064 -4.338429 0.827390 4.435390 15.991242 10.735504 -2.614624 4.422045 8.842793 31.157697 29.567069 -30.314753 -8.037937 0.262332 3.581266 0.000000 0.000000 0.000000 -86.745766 -1.673573 2.084765 6.503351 -20.423808 -14.035952 -5.793608 -0.380339 -6.674834 39.143705 -30.544060 38.656323 -12.576815 0.770240 -2.954136 0.000000 0.000000 0.000000 -85.672866 -5.432210 -1.503484 4.732265 -1.138001 1.548658 4.732017 -1.060011 -0.983618 1.135760 0.371626 -0.187987 0.000000 0.000000 0.000000 4.944916 -1.085140 -1.144958 -1.991011 -1.056776 -0.595270 11.423911 -1.761483 3.097456 0.000000 0.000000 0.000000 6.931150 -1.629854 -0.776529 -0.122606 2.739294 -6.752608 -2.726502 0.736363 -1.969277 40.481753 -34.839934 -33.941723 -21.157628 -89.051050 -21.054000 0.000000 0.000000 0.000000 6.213255 -1.213950 -0.882982 0.879666 -4.166622 18.264996 0.004819 3.291596 -0.506684 -11.433067 48.383728 35.470562 -179.936197 71.191308 179.608089 0.000000 0.000000 0.000000 
0.162446 40.246014 0.530230 0.000000 0.000000 0.000000 -84.578772 -4.601301 0.410671 3.220239 15.749371 10.744122 -3.022316 4.156363 9.070801 31.346918 29.237267 -29.870231 -7.995460 0.244577 3.365768 0.000000 0.000000 0.000000 -85.895598 -1.847020 1.654221 5.909111 -19.528337 -13.739034 -5.959651 -0.296365 -6.871094 40.426107 -30.559257 38.731124 -12.915641 0.758349 -2.960317 0.000000 0.000000 0.000000 -84.908383 -5.655322 -1.960595 4.908686 -1.046614 1.432775 4.750046 -1.216460 -0.744555 1.011349 0.578030 -0.176644 0.000000 0.000000 0.000000 4.699484 -1.141793 -0.911475 0.348184 -1.217283 -1.000597 18.140236 -2.367383 2.034225 0.000000 0.000000 0.000000 6.873407 -1.743891 -0.524872 -0.145745 3.496405 -6.792521 -2.503740 0.699484 -2.167877 41.186058 -35.723153 -33.172422 -17.363048 -88.033673 -17.420175 0.000000 0.000000 0.000000 6.196161 -1.288320 -0.659723 1.004826 -5.279854 19.428647 0.297172 3.483610 -0.364751 -3.213849 45.541796 31.149689 179.391408 67.518223 -179.490596 0.000000 0.000000 0.000000 
0.141479 40.241165 0.624344 0.000000 0.000000 0.000000 -83.979683 -4.799741 0.064375 2.001864 15.799609 10.763714 -3.304803 3.836318 9.223034 31.681395 28.563013 -29.483420 -8.054387 0.206318 3.245924 0.000000 0.000000 0.000000 -85.163006 -1.950877 1.300715 5.278905 -18.850333 -13.470333 -6.095699 -0.140790 -7.080188 41.770097 -30.398337 39.000466 -13.428201 0.747553 -2.975428 0.000000 0.000000 0.000000 -84.219552 -5.863871 -2.384684 5.173424 -1.033327 1.267722 4.696584 -1.431863 -0.485056 0.905376 0.844972 -0.209761 0.000000 0.000000 0.000000 4.438100 -1.274482 -0.650690 2.462862 -1.337883 -1.214766 24.174241 -3.069703 1.091955 0.000000 0.000000 0.000000 6.688917 -1.901478 -0.255319 -0.194445 4.340920 -6.767048 -2.240914 0.708008 -2.562227 41.881839 -36.638747 -32.429485 -15.226833 -86.907750 -15.447772 0.000000 0.000000 0.000000 6.070384 -1.413764 -0.421730 1.116042 -6.447927 20.633933 0.665961 3.648312 -0.195727 2.496472 42.192046 29.301802 178.994929 64.696412 -178.954221 0.000000 0.000000 0.000000 
0.125087 40.245197 0.714342 0.000000 0.000000 0.000000 -83.570021 -4.886467 -0.196925 0.936438 16.095870 10.837031 -3.385324 3.510883 9.267383 32.138202 27.671613 -29.203819 -8.061403 0.157369 3.207080 0.000000 0.000000 0.000000 -84.630518 -1.949765 1.050197 4.754429 -18.478329 -13.217588 -6.111074 -0.096722 -7.300351 42.897529 -30.340035 39.159291 -13.789606 0.717651 -2.970856 0.000000 0.000000 0.000000 -83.699515 -6.077551 -2.767690 5.475288 -1.088613 1.086915 4.564064 -1.688944 -0.216725 0.880515 1.009041 -0.161568 0.000000 0.000000 0.000000 4.164007 -1.464253 -0.380589 4.080649 -1.387737 -1.246778 29.075159 -3.696671 0.347023 0.000000 0.000000 0.000000 6.391597 -2.086713 0.006687 -0.259365 5.149566 -6.737467 -1.863676 0.755290 -2.968093 42.528658 -37.523051 -31.748656 -13.378594 -85.872704 -13.768828 0.000000 0.000000 0.000000 5.864626 -1.571209 -0.190531 1.213004 -7.491514 21.726854 1.088964 3.769758 0.117934 6.090098 39.136642 29.073151 178.673077 63.461897 -178.567414 0.000000 0.000000 0.000000 
